<mxfile host="Electron" modified="2024-03-21T15:06:35.530Z" agent="Mozilla/5.0 (Macintosh; Intel Mac OS X 10_15_7) AppleWebKit/537.36 (KHTML, like Gecko) draw.io/24.0.4 Chrome/120.0.6099.109 Electron/28.1.0 Safari/537.36" etag="dFK90Ubt66XkpBQYESU_" version="24.0.4" type="device">
  <diagram name="Page-1" id="99cRSf7tibIR4LTFag5N">
    <mxGraphModel dx="1393" dy="978" grid="1" gridSize="10" guides="1" tooltips="1" connect="1" arrows="1" fold="1" page="1" pageScale="1" pageWidth="1400" pageHeight="1400" math="0" shadow="0">
      <root>
        <mxCell id="0" />
        <mxCell id="1" parent="0" />
        <mxCell id="lY5xhKyxChRA9pRhjd0q-141" value="body" style="whiteSpace=wrap;html=1;aspect=fixed;fontSize=22;container=0;" parent="1" vertex="1">
          <mxGeometry x="200" y="70" width="80" height="80" as="geometry" />
        </mxCell>
        <mxCell id="lY5xhKyxChRA9pRhjd0q-144" value="Lookup" style="whiteSpace=wrap;html=1;fontSize=22;container=0;" parent="1" vertex="1">
          <mxGeometry x="40" y="70" width="120" height="80" as="geometry" />
        </mxCell>
        <mxCell id="osK2eFMuCYya0lGRVM3H-3" value="i:j" style="shape=crossbar;whiteSpace=wrap;html=1;rounded=1;fontSize=22;labelBackgroundColor=default;" vertex="1" parent="1">
          <mxGeometry x="200" y="160" width="320" height="30" as="geometry" />
        </mxCell>
        <mxCell id="osK2eFMuCYya0lGRVM3H-8" value="body" style="whiteSpace=wrap;html=1;aspect=fixed;fontSize=22;container=0;" vertex="1" parent="1">
          <mxGeometry x="440" y="70" width="80" height="80" as="geometry" />
        </mxCell>
        <mxCell id="osK2eFMuCYya0lGRVM3H-24" value="Stepper" style="whiteSpace=wrap;html=1;fontSize=22;container=0;" vertex="1" parent="1">
          <mxGeometry x="40" y="650" width="120" height="80" as="geometry" />
        </mxCell>
        <mxCell id="osK2eFMuCYya0lGRVM3H-25" value="i:j" style="shape=crossbar;whiteSpace=wrap;html=1;rounded=1;fontSize=22;labelBackgroundColor=default;" vertex="1" parent="1">
          <mxGeometry x="200" y="740" width="450" height="30" as="geometry" />
        </mxCell>
        <mxCell id="osK2eFMuCYya0lGRVM3H-27" value="..." style="text;html=1;align=center;verticalAlign=middle;resizable=0;points=[];autosize=1;strokeColor=none;fillColor=none;fontSize=20;" vertex="1" parent="1">
          <mxGeometry x="340" y="93" width="40" height="40" as="geometry" />
        </mxCell>
        <mxCell id="osK2eFMuCYya0lGRVM3H-46" style="edgeStyle=orthogonalEdgeStyle;rounded=0;orthogonalLoop=1;jettySize=auto;html=1;exitX=0.63;exitY=0;exitDx=0;exitDy=0;exitPerimeter=0;entryX=0;entryY=0.5;entryDx=0;entryDy=0;" edge="1" parent="1" source="osK2eFMuCYya0lGRVM3H-28" target="osK2eFMuCYya0lGRVM3H-37">
          <mxGeometry relative="1" as="geometry" />
        </mxCell>
        <mxCell id="osK2eFMuCYya0lGRVM3H-28" value="&lt;div style=&quot;font-size: 22px;&quot;&gt;body&lt;/div&gt;" style="whiteSpace=wrap;html=1;fontSize=22;container=0;points=[[0,0,0,0,0],[0,0.25,0,0,0],[0,0.5,0,0,0],[0,0.75,0,0,0],[0,1,0,0,0],[0.25,0,0,0,0],[0.25,1,0,0,0],[0.38,0,0,0,0],[0.5,0,0,0,0],[0.5,1,0,0,0],[0.63,0,0,0,0],[0.75,0,0,0,0],[0.75,1,0,0,0],[1,0,0,0,0],[1,0.25,0,0,0],[1,0.5,0,0,0],[1,0.75,0,0,0],[1,1,0,0,0]];" vertex="1" parent="1">
          <mxGeometry x="200" y="650" width="130" height="80" as="geometry" />
        </mxCell>
        <mxCell id="osK2eFMuCYya0lGRVM3H-31" value="..." style="text;html=1;align=center;verticalAlign=middle;resizable=0;points=[];autosize=1;strokeColor=none;fillColor=none;fontSize=20;" vertex="1" parent="1">
          <mxGeometry x="490" y="670" width="40" height="40" as="geometry" />
        </mxCell>
        <mxCell id="osK2eFMuCYya0lGRVM3H-32" value="&lt;span style=&quot;color: rgb(0, 0, 0); font-family: Helvetica; font-size: 18px; font-style: normal; font-variant-ligatures: normal; font-variant-caps: normal; font-weight: 400; letter-spacing: normal; orphans: 2; text-indent: 0px; text-transform: none; widows: 2; word-spacing: 0px; -webkit-text-stroke-width: 0px; white-space: normal; background-color: rgb(251, 251, 251); text-decoration-thickness: initial; text-decoration-style: initial; text-decoration-color: initial; float: none; display: inline !important;&quot;&gt;seek(i);&lt;/span&gt;" style="text;whiteSpace=wrap;html=1;fontSize=18;align=center;" vertex="1" parent="1">
          <mxGeometry x="170" y="600" width="70" height="30" as="geometry" />
        </mxCell>
        <mxCell id="osK2eFMuCYya0lGRVM3H-37" value="&lt;span style=&quot;color: rgb(0, 0, 0); font-family: Helvetica; font-size: 18px; font-style: normal; font-variant-ligatures: normal; font-variant-caps: normal; font-weight: 400; letter-spacing: normal; orphans: 2; text-indent: 0px; text-transform: none; widows: 2; word-spacing: 0px; -webkit-text-stroke-width: 0px; white-space: normal; background-color: rgb(251, 251, 251); text-decoration-thickness: initial; text-decoration-style: initial; text-decoration-color: initial; float: none; display: inline !important;&quot;&gt;next;&lt;/span&gt;" style="text;whiteSpace=wrap;html=1;align=center;fontSize=18;" vertex="1" parent="1">
          <mxGeometry x="310" y="600" width="50" height="30" as="geometry" />
        </mxCell>
        <mxCell id="osK2eFMuCYya0lGRVM3H-42" value="&lt;span style=&quot;color: rgb(0, 0, 0); font-family: Helvetica; font-size: 18px; font-style: normal; font-variant-ligatures: normal; font-variant-caps: normal; font-weight: 400; letter-spacing: normal; orphans: 2; text-indent: 0px; text-transform: none; widows: 2; word-spacing: 0px; -webkit-text-stroke-width: 0px; white-space: normal; background-color: rgb(251, 251, 251); text-decoration-thickness: initial; text-decoration-style: initial; text-decoration-color: initial; float: none; display: inline !important;&quot;&gt;next;&lt;/span&gt;" style="text;whiteSpace=wrap;html=1;align=center;fontSize=18;" vertex="1" parent="1">
          <mxGeometry x="450" y="600" width="50" height="30" as="geometry" />
        </mxCell>
        <mxCell id="osK2eFMuCYya0lGRVM3H-45" style="edgeStyle=orthogonalEdgeStyle;rounded=0;orthogonalLoop=1;jettySize=auto;html=1;exitX=1;exitY=0.5;exitDx=0;exitDy=0;entryX=0.38;entryY=0;entryDx=0;entryDy=0;entryPerimeter=0;" edge="1" parent="1" source="osK2eFMuCYya0lGRVM3H-32" target="osK2eFMuCYya0lGRVM3H-28">
          <mxGeometry relative="1" as="geometry" />
        </mxCell>
        <mxCell id="osK2eFMuCYya0lGRVM3H-52" style="edgeStyle=orthogonalEdgeStyle;rounded=0;orthogonalLoop=1;jettySize=auto;html=1;exitX=0.63;exitY=0;exitDx=0;exitDy=0;exitPerimeter=0;entryX=0;entryY=0.5;entryDx=0;entryDy=0;" edge="1" parent="1" source="osK2eFMuCYya0lGRVM3H-47" target="osK2eFMuCYya0lGRVM3H-42">
          <mxGeometry relative="1" as="geometry" />
        </mxCell>
        <mxCell id="osK2eFMuCYya0lGRVM3H-47" value="&lt;div style=&quot;font-size: 22px;&quot;&gt;body&lt;/div&gt;" style="whiteSpace=wrap;html=1;fontSize=22;container=0;points=[[0,0,0,0,0],[0,0.25,0,0,0],[0,0.5,0,0,0],[0,0.75,0,0,0],[0,1,0,0,0],[0.25,0,0,0,0],[0.25,1,0,0,0],[0.38,0,0,0,0],[0.5,0,0,0,0],[0.5,1,0,0,0],[0.63,0,0,0,0],[0.75,0,0,0,0],[0.75,1,0,0,0],[1,0,0,0,0],[1,0.25,0,0,0],[1,0.5,0,0,0],[1,0.75,0,0,0],[1,1,0,0,0]];" vertex="1" parent="1">
          <mxGeometry x="330" y="650" width="140" height="80" as="geometry" />
        </mxCell>
        <mxCell id="osK2eFMuCYya0lGRVM3H-48" value="&lt;div style=&quot;font-size: 22px;&quot;&gt;body&lt;/div&gt;" style="whiteSpace=wrap;html=1;fontSize=22;container=0;points=[[0,0,0,0,0],[0,0.25,0,0,0],[0,0.5,0,0,0],[0,0.75,0,0,0],[0,1,0,0,0],[0.25,0,0,0,0],[0.25,1,0,0,0],[0.38,0,0,0,0],[0.5,0,0,0,0],[0.5,1,0,0,0],[0.63,0,0,0,0],[0.75,0,0,0,0],[0.75,1,0,0,0],[1,0,0,0,0],[1,0.25,0,0,0],[1,0.5,0,0,0],[1,0.75,0,0,0],[1,1,0,0,0]];" vertex="1" parent="1">
          <mxGeometry x="550" y="650" width="100" height="80" as="geometry" />
        </mxCell>
        <mxCell id="osK2eFMuCYya0lGRVM3H-50" style="edgeStyle=orthogonalEdgeStyle;rounded=0;orthogonalLoop=1;jettySize=auto;html=1;exitX=1;exitY=0.5;exitDx=0;exitDy=0;entryX=0.38;entryY=0;entryDx=0;entryDy=0;entryPerimeter=0;" edge="1" parent="1" source="osK2eFMuCYya0lGRVM3H-37" target="osK2eFMuCYya0lGRVM3H-47">
          <mxGeometry relative="1" as="geometry" />
        </mxCell>
        <mxCell id="osK2eFMuCYya0lGRVM3H-54" style="edgeStyle=orthogonalEdgeStyle;rounded=0;orthogonalLoop=1;jettySize=auto;html=1;exitX=1;exitY=0.5;exitDx=0;exitDy=0;entryX=0.5;entryY=0;entryDx=0;entryDy=0;" edge="1" parent="1" source="osK2eFMuCYya0lGRVM3H-53" target="lY5xhKyxChRA9pRhjd0q-141">
          <mxGeometry relative="1" as="geometry" />
        </mxCell>
        <mxCell id="osK2eFMuCYya0lGRVM3H-53" value="&lt;span style=&quot;color: rgb(0, 0, 0); font-family: Helvetica; font-size: 18px; font-style: normal; font-variant-ligatures: normal; font-variant-caps: normal; font-weight: 400; letter-spacing: normal; orphans: 2; text-indent: 0px; text-transform: none; widows: 2; word-spacing: 0px; -webkit-text-stroke-width: 0px; white-space: normal; background-color: rgb(251, 251, 251); text-decoration-thickness: initial; text-decoration-style: initial; text-decoration-color: initial; float: none; display: inline !important;&quot;&gt;seek(i);&lt;/span&gt;" style="text;whiteSpace=wrap;html=1;fontSize=18;align=center;" vertex="1" parent="1">
          <mxGeometry x="160" y="20" width="70" height="30" as="geometry" />
        </mxCell>
        <mxCell id="osK2eFMuCYya0lGRVM3H-56" style="edgeStyle=orthogonalEdgeStyle;rounded=0;orthogonalLoop=1;jettySize=auto;html=1;exitX=1;exitY=0.5;exitDx=0;exitDy=0;entryX=0.5;entryY=0;entryDx=0;entryDy=0;" edge="1" parent="1" source="osK2eFMuCYya0lGRVM3H-55" target="osK2eFMuCYya0lGRVM3H-8">
          <mxGeometry relative="1" as="geometry" />
        </mxCell>
        <mxCell id="osK2eFMuCYya0lGRVM3H-55" value="&lt;span style=&quot;color: rgb(0, 0, 0); font-family: Helvetica; font-size: 18px; font-style: normal; font-variant-ligatures: normal; font-variant-caps: normal; font-weight: 400; letter-spacing: normal; orphans: 2; text-indent: 0px; text-transform: none; widows: 2; word-spacing: 0px; -webkit-text-stroke-width: 0px; white-space: normal; background-color: rgb(251, 251, 251); text-decoration-thickness: initial; text-decoration-style: initial; text-decoration-color: initial; float: none; display: inline !important;&quot;&gt;seek(j);&lt;/span&gt;" style="text;whiteSpace=wrap;html=1;fontSize=18;align=center;" vertex="1" parent="1">
          <mxGeometry x="400" y="20" width="70" height="30" as="geometry" />
        </mxCell>
        <mxCell id="osK2eFMuCYya0lGRVM3H-57" value="&lt;span style=&quot;color: rgb(0, 0, 0); font-family: Helvetica; font-size: 18px; font-style: normal; font-variant-ligatures: normal; font-variant-caps: normal; font-weight: 400; letter-spacing: normal; orphans: 2; text-indent: 0px; text-transform: none; widows: 2; word-spacing: 0px; -webkit-text-stroke-width: 0px; white-space: normal; background-color: rgb(251, 251, 251); text-decoration-thickness: initial; text-decoration-style: initial; text-decoration-color: initial; float: none; display: inline !important;&quot;&gt;next;&lt;/span&gt;" style="text;whiteSpace=wrap;html=1;align=center;fontSize=18;" vertex="1" parent="1">
          <mxGeometry x="520" y="600" width="50" height="30" as="geometry" />
        </mxCell>
        <mxCell id="osK2eFMuCYya0lGRVM3H-58" style="edgeStyle=orthogonalEdgeStyle;rounded=0;orthogonalLoop=1;jettySize=auto;html=1;exitX=1;exitY=0.5;exitDx=0;exitDy=0;entryX=0.38;entryY=0;entryDx=0;entryDy=0;entryPerimeter=0;" edge="1" parent="1" source="osK2eFMuCYya0lGRVM3H-57" target="osK2eFMuCYya0lGRVM3H-48">
          <mxGeometry relative="1" as="geometry" />
        </mxCell>
        <mxCell id="osK2eFMuCYya0lGRVM3H-59" value="Sequence" style="whiteSpace=wrap;html=1;fontSize=22;container=0;" vertex="1" parent="1">
          <mxGeometry x="40" y="500" width="120" height="80" as="geometry" />
        </mxCell>
        <mxCell id="osK2eFMuCYya0lGRVM3H-62" value="&lt;div style=&quot;font-size: 22px;&quot;&gt;head&lt;/div&gt;" style="whiteSpace=wrap;html=1;fontSize=22;container=0;points=[[0,0,0,0,0],[0,0.25,0,0,0],[0,0.5,0,0,0],[0,0.75,0,0,0],[0,1,0,0,0],[0.25,0,0,0,0],[0.25,1,0,0,0],[0.38,0,0,0,0],[0.5,0,0,0,0],[0.5,1,0,0,0],[0.63,0,0,0,0],[0.75,0,0,0,0],[0.75,1,0,0,0],[1,0,0,0,0],[1,0.25,0,0,0],[1,0.5,0,0,0],[1,0.75,0,0,0],[1,1,0,0,0]];labelBackgroundColor=none;fillColor=#f8cecc;strokeColor=#b85450;" vertex="1" parent="1">
          <mxGeometry x="200" y="500" width="130" height="80" as="geometry" />
        </mxCell>
        <mxCell id="osK2eFMuCYya0lGRVM3H-69" value="&lt;div style=&quot;font-size: 22px;&quot;&gt;tail&lt;/div&gt;" style="whiteSpace=wrap;html=1;fontSize=22;container=0;points=[[0,0,0,0,0],[0,0.25,0,0,0],[0,0.5,0,0,0],[0,0.75,0,0,0],[0,1,0,0,0],[0.25,0,0,0,0],[0.25,1,0,0,0],[0.38,0,0,0,0],[0.5,0,0,0,0],[0.5,1,0,0,0],[0.63,0,0,0,0],[0.75,0,0,0,0],[0.75,1,0,0,0],[1,0,0,0,0],[1,0.25,0,0,0],[1,0.5,0,0,0],[1,0.75,0,0,0],[1,1,0,0,0]];fillColor=#dae8fc;strokeColor=#6c8ebf;" vertex="1" parent="1">
          <mxGeometry x="330" y="500" width="320" height="80" as="geometry" />
        </mxCell>
        <mxCell id="osK2eFMuCYya0lGRVM3H-74" value="Phase" style="whiteSpace=wrap;html=1;fontSize=22;container=0;" vertex="1" parent="1">
          <mxGeometry x="40" y="800" width="120" height="80" as="geometry" />
        </mxCell>
        <mxCell id="osK2eFMuCYya0lGRVM3H-76" value="&lt;div style=&quot;font-size: 22px;&quot;&gt;body&lt;/div&gt;" style="whiteSpace=wrap;html=1;fontSize=22;container=0;points=[[0,0,0,0,0],[0,0.25,0,0,0],[0,0.5,0,0,0],[0,0.75,0,0,0],[0,1,0,0,0],[0.25,0,0,0,0],[0.25,1,0,0,0],[0.38,0,0,0,0],[0.5,0,0,0,0],[0.5,1,0,0,0],[0.63,0,0,0,0],[0.75,0,0,0,0],[0.75,1,0,0,0],[1,0,0,0,0],[1,0.25,0,0,0],[1,0.5,0,0,0],[1,0.75,0,0,0],[1,1,0,0,0]];" vertex="1" parent="1">
          <mxGeometry x="330" y="800" width="190" height="80" as="geometry" />
        </mxCell>
        <mxCell id="osK2eFMuCYya0lGRVM3H-77" value="a:b" style="shape=crossbar;whiteSpace=wrap;html=1;rounded=1;fontSize=22;labelBackgroundColor=default;" vertex="1" parent="1">
          <mxGeometry x="200" y="930" width="450" height="30" as="geometry" />
        </mxCell>
        <mxCell id="osK2eFMuCYya0lGRVM3H-78" value="c:d" style="shape=crossbar;whiteSpace=wrap;html=1;rounded=1;fontSize=22;labelBackgroundColor=default;" vertex="1" parent="1">
          <mxGeometry x="330" y="890" width="190" height="30" as="geometry" />
        </mxCell>
        <mxCell id="osK2eFMuCYya0lGRVM3H-88" value="body" style="whiteSpace=wrap;html=1;aspect=fixed;fontSize=22;container=0;" vertex="1" parent="1">
          <mxGeometry x="200" y="220" width="80" height="80" as="geometry" />
        </mxCell>
        <mxCell id="osK2eFMuCYya0lGRVM3H-89" value="Run" style="whiteSpace=wrap;html=1;fontSize=22;container=0;" vertex="1" parent="1">
          <mxGeometry x="40" y="220" width="120" height="80" as="geometry" />
        </mxCell>
        <mxCell id="osK2eFMuCYya0lGRVM3H-90" value="i:j" style="shape=crossbar;whiteSpace=wrap;html=1;rounded=1;fontSize=22;labelBackgroundColor=default;" vertex="1" parent="1">
          <mxGeometry x="200" y="310" width="320" height="30" as="geometry" />
        </mxCell>
        <mxCell id="osK2eFMuCYya0lGRVM3H-91" value="body" style="whiteSpace=wrap;html=1;aspect=fixed;fontSize=22;container=0;" vertex="1" parent="1">
          <mxGeometry x="440" y="220" width="80" height="80" as="geometry" />
        </mxCell>
        <mxCell id="osK2eFMuCYya0lGRVM3H-92" value="..." style="text;html=1;align=center;verticalAlign=middle;resizable=0;points=[];autosize=1;strokeColor=none;fillColor=none;fontSize=20;" vertex="1" parent="1">
          <mxGeometry x="340" y="243" width="40" height="40" as="geometry" />
        </mxCell>
        <mxCell id="osK2eFMuCYya0lGRVM3H-97" value="body" style="whiteSpace=wrap;html=1;aspect=fixed;fontSize=22;container=0;" vertex="1" parent="1">
          <mxGeometry x="200" y="360" width="80" height="80" as="geometry" />
        </mxCell>
        <mxCell id="osK2eFMuCYya0lGRVM3H-98" value="Spike" style="whiteSpace=wrap;html=1;fontSize=22;container=0;" vertex="1" parent="1">
          <mxGeometry x="40" y="360" width="120" height="80" as="geometry" />
        </mxCell>
        <mxCell id="osK2eFMuCYya0lGRVM3H-99" value="i:j-1" style="shape=crossbar;whiteSpace=wrap;html=1;rounded=1;fontSize=22;labelBackgroundColor=default;" vertex="1" parent="1">
          <mxGeometry x="200" y="450" width="320" height="30" as="geometry" />
        </mxCell>
        <mxCell id="osK2eFMuCYya0lGRVM3H-100" value="body" style="whiteSpace=wrap;html=1;aspect=fixed;fontSize=22;container=0;" vertex="1" parent="1">
          <mxGeometry x="440" y="360" width="80" height="80" as="geometry" />
        </mxCell>
        <mxCell id="osK2eFMuCYya0lGRVM3H-101" value="..." style="text;html=1;align=center;verticalAlign=middle;resizable=0;points=[];autosize=1;strokeColor=none;fillColor=none;fontSize=20;" vertex="1" parent="1">
          <mxGeometry x="340" y="383" width="40" height="40" as="geometry" />
        </mxCell>
        <mxCell id="osK2eFMuCYya0lGRVM3H-102" value="tail" style="whiteSpace=wrap;html=1;aspect=fixed;fontSize=22;container=0;" vertex="1" parent="1">
          <mxGeometry x="520" y="360" width="80" height="80" as="geometry" />
        </mxCell>
        <mxCell id="osK2eFMuCYya0lGRVM3H-103" value="j:j" style="shape=crossbar;whiteSpace=wrap;html=1;rounded=1;fontSize=22;labelBackgroundColor=default;" vertex="1" parent="1">
          <mxGeometry x="520" y="450" width="80" height="30" as="geometry" />
        </mxCell>
        <mxCell id="osK2eFMuCYya0lGRVM3H-105" value="Switch" style="whiteSpace=wrap;html=1;fontSize=22;container=0;" vertex="1" parent="1">
          <mxGeometry x="40" y="1040" width="120" height="80" as="geometry" />
        </mxCell>
        <mxCell id="osK2eFMuCYya0lGRVM3H-106" value="&lt;div style=&quot;font-size: 22px;&quot;&gt;head&lt;/div&gt;" style="whiteSpace=wrap;html=1;fontSize=22;container=0;points=[[0,0,0,0,0],[0,0.25,0,0,0],[0,0.5,0,0,0],[0,0.75,0,0,0],[0,1,0,0,0],[0.25,0,0,0,0],[0.25,1,0,0,0],[0.38,0,0,0,0],[0.5,0,0,0,0],[0.5,1,0,0,0],[0.63,0,0,0,0],[0.75,0,0,0,0],[0.75,1,0,0,0],[1,0,0,0,0],[1,0.25,0,0,0],[1,0.5,0,0,0],[1,0.75,0,0,0],[1,1,0,0,0]];labelBackgroundColor=none;fillColor=#f8cecc;strokeColor=#b85450;" vertex="1" parent="1">
          <mxGeometry x="240" y="1000" width="160" height="80" as="geometry" />
        </mxCell>
        <mxCell id="osK2eFMuCYya0lGRVM3H-107" value="&lt;div style=&quot;font-size: 22px;&quot;&gt;tail&lt;/div&gt;" style="whiteSpace=wrap;html=1;fontSize=22;container=0;points=[[0,0,0,0,0],[0,0.25,0,0,0],[0,0.5,0,0,0],[0,0.75,0,0,0],[0,1,0,0,0],[0.25,0,0,0,0],[0.25,1,0,0,0],[0.38,0,0,0,0],[0.5,0,0,0,0],[0.5,1,0,0,0],[0.63,0,0,0,0],[0.75,0,0,0,0],[0.75,1,0,0,0],[1,0,0,0,0],[1,0.25,0,0,0],[1,0.5,0,0,0],[1,0.75,0,0,0],[1,1,0,0,0]];fillColor=#dae8fc;strokeColor=#6c8ebf;" vertex="1" parent="1">
          <mxGeometry x="240" y="1080" width="160" height="80" as="geometry" />
        </mxCell>
        <mxCell id="osK2eFMuCYya0lGRVM3H-108" value="" style="shape=curlyBracket;whiteSpace=wrap;html=1;rounded=1;labelPosition=left;verticalLabelPosition=middle;align=right;verticalAlign=middle;" vertex="1" parent="1">
          <mxGeometry x="200" y="1000" width="30" height="160" as="geometry" />
        </mxCell>
        <mxCell id="osK2eFMuCYya0lGRVM3H-109" value="if cond" style="text;html=1;align=center;verticalAlign=middle;resizable=0;points=[];autosize=1;strokeColor=none;fillColor=none;fontSize=18;" vertex="1" parent="1">
          <mxGeometry x="400" y="1020" width="80" height="40" as="geometry" />
        </mxCell>
        <mxCell id="osK2eFMuCYya0lGRVM3H-110" value="otherwise" style="text;html=1;align=center;verticalAlign=middle;resizable=0;points=[];autosize=1;strokeColor=none;fillColor=none;fontSize=18;" vertex="1" parent="1">
          <mxGeometry x="400" y="1100" width="100" height="40" as="geometry" />
        </mxCell>
        <mxCell id="osK2eFMuCYya0lGRVM3H-111" value="Thunk" style="whiteSpace=wrap;html=1;fontSize=22;container=0;" vertex="1" parent="1">
          <mxGeometry x="40" y="1240" width="120" height="80" as="geometry" />
        </mxCell>
        <mxCell id="osK2eFMuCYya0lGRVM3H-112" value="i:j" style="shape=crossbar;whiteSpace=wrap;html=1;rounded=1;fontSize=22;labelBackgroundColor=default;" vertex="1" parent="1">
          <mxGeometry x="250" y="1330" width="190" height="30" as="geometry" />
        </mxCell>
        <mxCell id="osK2eFMuCYya0lGRVM3H-126" style="edgeStyle=orthogonalEdgeStyle;rounded=0;orthogonalLoop=1;jettySize=auto;html=1;exitX=0.75;exitY=0;exitDx=0;exitDy=0;exitPerimeter=0;entryX=0;entryY=0.5;entryDx=0;entryDy=0;" edge="1" parent="1" source="osK2eFMuCYya0lGRVM3H-114" target="osK2eFMuCYya0lGRVM3H-117">
          <mxGeometry relative="1" as="geometry" />
        </mxCell>
        <mxCell id="osK2eFMuCYya0lGRVM3H-114" value="&lt;div style=&quot;font-size: 22px;&quot;&gt;body&lt;/div&gt;" style="whiteSpace=wrap;html=1;fontSize=22;container=0;points=[[0,0,0,0,0],[0,0.25,0,0,0],[0,0.5,0,0,0],[0,0.75,0,0,0],[0,1,0,0,0],[0.25,0,0,0,0],[0.25,1,0,0,0],[0.38,0,0,0,0],[0.5,0,0,0,0],[0.5,1,0,0,0],[0.63,0,0,0,0],[0.75,0,0,0,0],[0.75,1,0,0,0],[1,0,0,0,0],[1,0.25,0,0,0],[1,0.5,0,0,0],[1,0.75,0,0,0],[1,1,0,0,0]];" vertex="1" parent="1">
          <mxGeometry x="250" y="1240" width="190" height="80" as="geometry" />
        </mxCell>
        <mxCell id="osK2eFMuCYya0lGRVM3H-116" value="&lt;span style=&quot;color: rgb(0, 0, 0); font-family: Helvetica; font-size: 18px; font-style: normal; font-variant-ligatures: normal; font-variant-caps: normal; font-weight: 400; letter-spacing: normal; orphans: 2; text-indent: 0px; text-transform: none; widows: 2; word-spacing: 0px; -webkit-text-stroke-width: 0px; white-space: normal; background-color: rgb(251, 251, 251); text-decoration-thickness: initial; text-decoration-style: initial; text-decoration-color: initial; float: none; display: inline !important;&quot;&gt;preamble;&lt;/span&gt;" style="text;whiteSpace=wrap;html=1;fontSize=18;align=center;" vertex="1" parent="1">
          <mxGeometry x="190" y="1190" width="90" height="30" as="geometry" />
        </mxCell>
        <mxCell id="osK2eFMuCYya0lGRVM3H-117" value="&lt;span style=&quot;color: rgb(0, 0, 0); font-family: Helvetica; font-size: 18px; font-style: normal; font-variant-ligatures: normal; font-variant-caps: normal; font-weight: 400; letter-spacing: normal; orphans: 2; text-indent: 0px; text-transform: none; widows: 2; word-spacing: 0px; -webkit-text-stroke-width: 0px; white-space: normal; background-color: rgb(251, 251, 251); text-decoration-thickness: initial; text-decoration-style: initial; text-decoration-color: initial; float: none; display: inline !important;&quot;&gt;epilogue;&lt;/span&gt;" style="text;whiteSpace=wrap;html=1;align=center;fontSize=18;" vertex="1" parent="1">
          <mxGeometry x="430" y="1190" width="90" height="30" as="geometry" />
        </mxCell>
        <mxCell id="osK2eFMuCYya0lGRVM3H-125" style="edgeStyle=orthogonalEdgeStyle;rounded=0;orthogonalLoop=1;jettySize=auto;html=1;exitX=1;exitY=0.5;exitDx=0;exitDy=0;entryX=0.38;entryY=0;entryDx=0;entryDy=0;entryPerimeter=0;" edge="1" parent="1" target="osK2eFMuCYya0lGRVM3H-122">
          <mxGeometry relative="1" as="geometry">
            <mxPoint x="570" y="1205" as="sourcePoint" />
          </mxGeometry>
        </mxCell>
        <mxCell id="osK2eFMuCYya0lGRVM3H-127" style="edgeStyle=orthogonalEdgeStyle;rounded=0;orthogonalLoop=1;jettySize=auto;html=1;exitX=1;exitY=0.5;exitDx=0;exitDy=0;entryX=0.25;entryY=0;entryDx=0;entryDy=0;entryPerimeter=0;" edge="1" parent="1" source="osK2eFMuCYya0lGRVM3H-116" target="osK2eFMuCYya0lGRVM3H-114">
          <mxGeometry relative="1" as="geometry" />
        </mxCell>
      </root>
    </mxGraphModel>
  </diagram>
</mxfile>
